<svg xmlns="http://www.w3.org/2000/svg" width="28" height="28" viewBox="0 0 28 28" fill="none">
  <g clip-path="url(#clip0_6_3189)">
    <mask id="mask0_6_3189" style="mask-type:alpha" maskUnits="userSpaceOnUse" x="0" y="0" width="28" height="28">
      <rect width="28" height="28" fill="white"/>
    </mask>
    <g mask="url(#mask0_6_3189)">
      <path fill-rule="evenodd" clip-rule="evenodd" d="M19.8313 14.0549H19.7875L20.2508 4.1568C20.2637 3.88048 20.2737 3.66791 20.2814 3.5034C20.3052 2.99892 20.3076 2.94653 20.3079 2.89413L20.3079 2.86891C20.3079 1.28696 19.0199 0 17.4368 0H10.5633C8.98011 0 7.69211 1.28696 7.69211 2.86891L7.69202 2.88951C7.69183 2.93734 7.69408 2.98519 7.74879 4.15013C7.76764 4.55162 7.79273 5.0858 7.82609 5.79841L8.21263 14.0549H8.16882C7.39986 14.0549 6.77429 14.6805 6.77429 15.4494V17.4832C6.77429 18.2521 7.39986 18.8777 8.16882 18.8777H8.45106V23.3894V26.8478C8.45106 27.4831 8.96797 28 9.60327 28C10.2051 28 10.7099 27.5297 10.7526 26.9294L11.3251 18.8777H16.6752L17.2477 26.9295C17.2902 27.5297 17.7951 28 18.3969 28C19.0322 28 19.5491 27.4831 19.5491 26.8478V18.8777H19.8313C20.6003 18.8777 21.2258 18.2521 21.2258 17.4832V15.4494C21.2258 14.6805 20.6003 14.0549 19.8313 14.0549ZM9.27138 26.8478V23.3894V18.8777H10.5027L9.93441 26.8713C9.9221 27.0442 9.77669 27.1797 9.60327 27.1797C9.42023 27.1797 9.27138 27.0308 9.27138 26.8478ZM19.4314 4.1185L18.9663 14.0549H9.03376L8.64542 5.76007C8.61134 5.03193 8.58596 4.49099 8.56706 4.0883C8.5137 2.9509 8.51208 2.91647 8.5123 2.88205L8.51237 2.86891C8.51237 1.73934 9.43237 0.820312 10.5632 0.820312H17.4368C18.5676 0.820312 19.4876 1.73934 19.4876 2.86891L19.4876 2.88553C19.4875 2.92224 19.4858 2.95894 19.4622 3.46086C19.4545 3.62493 19.4445 3.83871 19.4314 4.11846L19.4314 4.1185ZM18.7288 26.8478C18.7288 27.0308 18.5798 27.1797 18.3969 27.1797C18.2235 27.1797 18.078 27.0442 18.0657 26.8713L17.4975 18.8777H18.7288V26.8478ZM19.8313 18.0574C20.148 18.0574 20.4055 17.7998 20.4055 17.4832V15.4494C20.4055 15.1328 20.148 14.8752 19.8313 14.8752H8.16871C7.85207 14.8752 7.59449 15.1328 7.59449 15.4494V17.4832C7.59449 17.7998 7.85207 18.0574 8.16871 18.0574H19.8313Z" fill="#808080"/>
    </g>
  </g>
  <defs>
    <clipPath id="clip0_6_3189">
      <rect width="28" height="28" fill="white"/>
    </clipPath>
  </defs>
</svg>
