<svg xmlns="http://www.w3.org/2000/svg" width="201" height="182" viewBox="0 0 201 182" fill="none">
<path fill-rule="evenodd" clip-rule="evenodd" d="M96.2207 117.715C96.5515 117.68 96.8724 117.645 97.1857 117.612C98.1165 117.512 98.9795 117.42 99.8342 117.32C103.044 116.939 106.255 116.917 109.472 117.14C114.004 117.462 118.484 118.171 122.911 119.179C122.975 119.194 123.04 119.207 123.106 119.22L123.106 119.22C123.171 119.233 123.236 119.246 123.299 119.261C123.62 119.35 123.769 119.223 123.859 118.902C124.036 118.284 124.237 117.673 124.439 117.061L124.439 117.061L124.439 117.06C124.51 116.845 124.581 116.631 124.65 116.416C126.898 109.533 131.459 104.792 137.999 101.813C142.24 99.8797 146.66 99.2451 151.266 99.5586C152.132 99.6184 152.983 99.7378 153.879 99.917C153.911 99.5862 153.945 99.2589 153.979 98.9341L153.979 98.9339L153.979 98.9334C154.056 98.1953 154.131 97.4696 154.178 96.744C154.469 92.2571 155.723 88.0389 157.649 83.9999C158.112 83.0219 158.545 82.0364 158.918 81.0136C160.157 77.5868 160.076 74.175 158.739 70.8154C157.933 68.7922 156.522 67.1796 154.961 65.7013C152.416 63.2973 149.28 62.0207 146.01 61.0128C143.3 60.1766 140.508 59.7809 137.708 59.445C137.305 59.3972 136.902 59.349 136.499 59.3008C134.259 59.0331 132.018 58.7653 129.772 58.5565C127.696 58.3624 125.613 58.2355 123.538 58.1758C118.79 58.0339 114.042 58.0339 109.293 58.1832C106.046 58.2803 102.806 58.5117 99.6699 59.43C97.2809 60.1318 94.9665 61.0352 93.0926 62.7523C89.7255 65.8207 88.0606 69.6358 88.1577 74.2123C88.2324 77.7362 89.1357 81.0883 90.2108 84.4106C90.4135 85.0421 90.6278 85.6695 90.842 86.2965L90.842 86.2966L90.842 86.2966L90.842 86.2966L90.842 86.2966L90.842 86.2967C91.3772 87.8636 91.9119 89.4289 92.2639 91.0551C92.6073 92.6528 92.9209 94.2579 93.003 95.8929C93.0179 96.1542 93.0179 96.423 92.9955 96.6843C92.9657 97.0427 92.7716 97.2741 92.3983 97.3114C92.0324 97.3488 91.7562 97.1472 91.689 96.7291C91.6405 96.4157 91.6107 96.1005 91.5808 95.7853C91.5509 95.4696 91.5211 95.154 91.4725 94.8403C91.0544 92.0929 90.3228 89.4276 89.397 86.8145C88.322 83.776 87.3962 80.7001 86.8885 77.5122C86.1643 72.9805 86.7168 68.6802 89.3074 64.7681C90.935 62.3044 93.0776 60.4752 95.7653 59.2359C98.7815 57.8473 101.954 57.1604 105.239 56.8991C111.585 56.3915 117.946 56.4885 124.299 56.6826C130.212 56.8618 136.073 57.6233 141.919 58.4893C145.301 58.9895 148.541 60.0348 151.609 61.5354C154.715 63.0584 157.209 65.3056 159.09 68.1874C160.911 70.9796 161.524 74.1003 161.285 77.4077C161.135 79.5727 160.449 81.581 159.568 83.5445C159.257 84.2343 158.955 84.9297 158.653 85.6255L158.652 85.6273L158.651 85.6281L158.651 85.6289L158.651 85.6297L158.65 85.6304C158.459 86.0702 158.268 86.5101 158.075 86.9489C156.604 90.2488 155.992 93.7353 155.686 97.304C155.652 97.6984 155.625 98.0945 155.599 98.4907L155.599 98.4912L155.599 98.4918L155.599 98.4923L155.599 98.4929L155.599 98.4934C155.568 98.966 155.536 99.4388 155.492 99.9095C155.454 100.313 155.589 100.529 155.977 100.678C156.813 100.999 157.582 101.47 158.336 101.955C160.949 103.635 163.166 107.719 161.449 112.026C160.822 113.609 159.911 115.028 158.762 116.289C158.508 116.573 158.358 116.879 158.239 117.238C157.634 119.056 157.019 120.871 156.405 122.685L156.404 122.686L156.404 122.689L156.4 122.699C155.976 123.95 155.553 125.2 155.133 126.45C154.852 127.29 154.567 128.128 154.282 128.966L154.281 128.969C153.056 132.574 151.832 136.177 150.863 139.859C150.176 142.487 149.586 145.137 149.071 147.802C148.541 150.565 148.668 153.297 149.235 156.045C149.825 158.912 150.288 161.801 150.445 164.735C150.482 165.497 150.482 166.266 150.288 167.02C150.071 167.848 149.72 168.587 148.802 168.789C147.876 168.998 147.167 168.535 146.585 167.863C146.152 167.356 145.876 166.758 145.659 166.131C145.056 164.422 144.73 162.653 144.403 160.884C144.361 160.66 144.32 160.435 144.278 160.211L144.254 160.081C144.128 159.399 144.001 158.713 143.755 158.061C143.449 157.232 143.083 157.045 142.232 157.269C141.643 157.426 141.098 157.702 140.575 158.008C137.626 159.711 134.565 161.181 131.414 162.473C131.384 162.486 131.353 162.499 131.322 162.512C131.136 162.592 130.946 162.674 130.735 162.667C130.444 162.66 130.235 162.533 130.115 162.264C129.996 161.988 130.071 161.734 130.28 161.547C130.436 161.413 130.623 161.308 130.817 161.226C134.05 159.8 137.178 158.158 140.269 156.44C140.821 156.134 141.404 155.888 142.023 155.739C143.419 155.41 144.465 155.918 145.062 157.217C145.46 158.095 145.627 159.034 145.793 159.974C145.81 160.073 145.828 160.172 145.846 160.271L145.906 160.597C146.191 162.146 146.477 163.698 146.958 165.205C147.115 165.706 147.294 166.206 147.585 166.654C147.735 166.878 147.891 167.087 148.138 167.206C148.362 167.318 148.548 167.281 148.66 167.042C148.81 166.728 148.862 166.393 148.884 166.042C148.974 164.638 148.81 163.249 148.63 161.861C148.332 159.531 147.929 157.217 147.473 154.917C147.01 152.581 147.107 150.251 147.503 147.922C148.601 141.539 150.445 135.357 152.565 129.243C153.271 127.203 153.964 125.157 154.657 123.112L154.658 123.11C155.005 122.085 155.352 121.061 155.701 120.037C155.742 119.918 155.781 119.798 155.82 119.679C155.859 119.559 155.898 119.44 155.939 119.321C155.763 119.264 155.687 119.327 155.61 119.391L155.596 119.403C152.58 121.635 149.213 123.188 145.741 124.547C144.487 125.039 143.21 125.465 141.904 125.771C141.381 125.89 141.127 126.144 140.986 126.674C139.34 132.742 137.495 138.754 135.652 144.763L135.651 144.765L135.651 144.767L135.65 144.768C135.353 145.737 135.056 146.706 134.759 147.676C134.296 149.191 133.759 150.677 133.139 152.133C131.982 154.865 130.272 157.157 127.808 158.86C127.241 159.248 126.689 159.658 126.203 160.144C125.755 160.599 125.375 161.099 125.151 161.711C124.986 162.167 125.046 162.256 125.531 162.316C126.188 162.398 126.83 162.54 127.443 162.794C128.936 163.414 129.735 164.519 129.742 166.154C129.75 167.259 129.75 168.371 129.742 169.476C129.712 172.432 129.511 175.381 129.085 178.308C128.995 178.935 128.861 179.555 128.592 180.13C128.003 181.369 126.756 181.458 125.979 180.324C125.673 179.883 125.531 179.376 125.419 178.853C125.057 177.192 124.948 175.503 124.839 173.82V173.82L124.839 173.82L124.83 173.672C124.628 170.566 124.337 167.468 123.986 164.377C123.926 163.817 123.919 163.802 123.351 163.854C122.116 163.973 120.894 164.186 119.672 164.4L119.672 164.4L119.672 164.4L119.672 164.4L119.671 164.4L119.671 164.4L119.669 164.401L119.667 164.401L119.666 164.401L119.664 164.401C119.278 164.469 118.892 164.536 118.506 164.601C115.034 165.176 111.54 165.37 108.024 165.235C107.615 165.218 107.206 165.201 106.797 165.184C105.731 165.14 104.666 165.096 103.597 165.064C100.984 164.974 98.4008 164.608 95.8176 164.198L95.7413 164.186C92.1756 163.622 88.603 163.057 85.0967 162.197C81.3862 161.293 77.6981 160.278 74.1146 158.942C74.0204 158.906 73.9402 158.874 73.8712 158.846C73.6765 158.767 73.5703 158.725 73.4869 158.752C73.3868 158.784 73.3193 158.917 73.171 159.21L73.1142 159.322C72.431 160.675 71.762 162.036 71.0933 163.397L71.0924 163.399L71.0921 163.399C70.6797 164.238 70.2672 165.078 69.8516 165.915C69.1573 167.311 68.4032 168.67 67.5969 169.998C67.1714 170.7 66.7234 171.387 66.1187 171.947C65.5812 172.447 64.969 172.835 64.1925 172.5C63.3937 172.149 63.222 171.447 63.2444 170.663C63.2668 169.73 63.4907 168.834 63.7894 167.96C64.5504 165.73 65.4401 163.545 66.3286 161.363C66.5732 160.762 66.8177 160.162 67.0594 159.561L67.1978 159.216C67.6228 158.159 68.0485 157.1 68.4256 156.022C69.2319 153.708 69.2543 151.379 68.6944 149.012C68.2793 147.285 67.7412 145.597 67.203 143.909L67.203 143.909L67.2029 143.909C66.9571 143.137 66.7112 142.366 66.477 141.591C65.5289 138.433 64.7301 135.238 64.2746 131.968C64.0805 130.557 63.9536 129.138 63.9088 127.712C63.8416 125.651 63.4161 123.703 62.5053 121.836C61.6989 120.179 60.9001 118.514 60.4746 116.7C60.0789 114.99 59.9744 113.273 60.1983 111.519C60.6985 107.502 63.8491 105.262 67.1266 104.926C67.6193 104.874 68.0299 104.732 68.4256 104.449C72.5244 101.567 77.0486 99.7154 82.0059 98.9464C84.1486 98.6105 86.3062 98.4761 88.4713 98.7225C92.346 99.1704 95.0337 101.253 96.6687 104.747C97.8259 107.204 98.0872 109.802 97.8334 112.474C97.6318 114.251 97.1764 115.968 96.2207 117.715ZM141.71 124.166C141.936 124.197 142.094 124.155 142.245 124.113C142.273 124.106 142.301 124.098 142.329 124.091C143.658 123.748 144.935 123.255 146.204 122.732C150.124 121.12 153.886 119.246 156.895 116.133C158.172 114.804 159.239 113.348 159.956 111.653C161.285 108.495 160.195 104.986 157.328 103.105C155.925 102.179 154.402 101.5 152.744 101.246C150.124 100.85 147.488 100.917 144.86 101.291C142.001 101.694 139.358 102.717 136.835 104.075C132.37 106.472 128.981 109.891 126.965 114.602C125.778 117.379 124.956 120.261 124.314 123.203L124.201 123.725L124.201 123.725L124.201 123.725C123.246 128.113 122.292 132.497 121.007 136.798C120.447 138.672 119.768 140.501 118.879 142.24C116.871 146.16 113.75 148.668 109.413 149.587C107.755 149.938 106.068 150.057 104.381 150.08C99.3265 150.139 94.3244 149.676 89.3672 148.691C86.8213 148.183 84.3576 147.414 82.0731 146.175C79.1092 144.562 76.8918 142.285 75.9362 138.97C75.3539 136.97 74.9955 134.909 74.8985 132.819C74.8687 132.163 74.8367 131.508 74.8048 130.853C74.6686 128.058 74.5323 125.262 74.5625 122.456C74.5625 122.421 74.5653 122.385 74.5682 122.348C74.5794 122.205 74.5913 122.053 74.4431 121.911C74.2913 121.911 74.1799 121.999 74.0677 122.088C74.0199 122.126 73.9718 122.164 73.9205 122.195C73.3605 122.546 72.7558 122.807 72.0913 122.912C70.4041 123.165 68.8885 122.695 67.5521 121.71C62.789 118.216 62.3559 111.437 65.1929 107.398C65.2129 107.37 65.2363 107.344 65.2603 107.317L65.2603 107.317C65.353 107.212 65.4538 107.099 65.3945 106.868C63.6848 107.607 62.4605 108.749 61.9453 110.541C61.4227 112.355 61.4974 114.192 61.8781 116.021C62.244 117.797 63.0129 119.418 63.8118 121.023C64.8794 123.173 65.3647 125.435 65.4244 127.809C65.4617 129.257 65.611 130.706 65.8275 132.139C66.3053 135.297 67.0892 138.388 68.0225 141.442C68.2358 142.142 68.4601 142.838 68.6842 143.535L68.6843 143.535C69.2681 145.348 69.8514 147.16 70.2398 149.027C70.5385 150.453 70.7027 151.886 70.5459 153.35C70.3593 155.104 69.7919 156.739 69.1573 158.359C68.494 160.043 67.8234 161.722 67.1524 163.402L67.1523 163.402C66.6602 164.634 66.1678 165.867 65.6782 167.102C65.3348 167.96 65.0436 168.834 64.8719 169.745L64.8606 169.805L64.8503 169.859C64.7871 170.188 64.7224 170.525 64.8495 170.879C65.1416 170.764 65.2898 170.564 65.4317 170.373L65.4317 170.373L65.4318 170.372C65.4639 170.329 65.4958 170.286 65.5289 170.245C66.0699 169.56 66.5041 168.799 66.9353 168.045L67.0519 167.841C68.1386 165.935 69.0909 163.964 70.0443 161.99C70.3419 161.374 70.6396 160.758 70.9416 160.144C71.3224 159.36 71.7255 158.591 72.1436 157.829C72.5692 157.06 72.9275 156.956 73.7786 157.269C74.3236 157.471 74.8686 157.672 75.4136 157.852C78.3477 158.815 81.3041 159.681 84.3054 160.383C91.6816 162.1 99.1249 163.436 106.733 163.638C109.771 163.72 112.802 163.772 115.818 163.384C117.362 163.185 118.896 162.948 120.431 162.711L120.431 162.711L120.432 162.711L120.432 162.711L120.433 162.711L120.433 162.711C121.37 162.566 122.307 162.422 123.247 162.286C123.538 162.242 123.643 162.107 123.695 161.838C123.919 160.592 124.621 159.621 125.516 158.762C126.076 158.232 126.689 157.777 127.308 157.329C129.16 155.97 130.511 154.208 131.474 152.14C132.213 150.557 132.796 148.922 133.303 147.257C133.683 146.012 134.065 144.766 134.447 143.52L134.449 143.517C135.921 138.717 137.395 133.914 138.746 129.078C138.895 128.541 139.046 128.007 139.199 127.469C139.299 127.117 139.399 126.763 139.5 126.406C139.169 126.299 138.875 126.347 138.589 126.394C138.514 126.406 138.44 126.419 138.365 126.428C136.917 126.615 135.461 126.704 134.035 126.338C130.511 125.428 128.615 123.427 128.204 120.254C127.861 117.574 128.159 114.916 129.354 112.452C130.645 109.772 132.713 108.107 135.804 107.92C140.037 107.666 142.135 110.227 142.785 113.012C142.964 113.781 143.031 114.572 143.046 115.364C143.098 117.947 142.561 120.448 141.964 122.934C141.936 123.036 141.906 123.135 141.876 123.233C141.783 123.535 141.693 123.827 141.71 124.166ZM122.508 120.522C122.762 120.575 123.015 120.634 123.329 120.709C123.109 121.701 122.893 122.69 122.678 123.678L122.678 123.679C121.725 128.053 120.781 132.383 119.514 136.634C119.036 138.224 118.431 139.769 117.707 141.27C115.617 145.578 112.168 147.914 107.427 148.392C103.955 148.743 100.476 148.609 97.0047 148.295C93.7197 148.004 90.4646 147.504 87.2693 146.66C85.5297 146.197 83.8723 145.518 82.3195 144.607C79.5497 142.972 77.7131 140.65 77.0785 137.432C76.6679 135.357 76.3916 133.274 76.317 131.161C76.2902 130.405 76.2613 129.649 76.2324 128.893C76.1404 126.486 76.0485 124.081 76.0258 121.672C76.0109 120.642 76.0706 119.664 76.4364 118.656C77.6683 115.259 77.1755 112.004 75.2643 108.973C74.2116 107.301 72.7035 106.128 70.8446 105.419C70.7589 105.386 70.6732 105.354 70.5876 105.322C70.5015 105.291 70.4154 105.259 70.3294 105.225C70.3172 105.221 70.3072 105.21 70.2921 105.194C70.2796 105.181 70.2635 105.163 70.2398 105.143C70.2805 104.998 70.3983 104.934 70.5154 104.87L70.5155 104.87L70.5155 104.87C70.5487 104.852 70.5818 104.834 70.6131 104.814C74.7641 102.172 79.2884 100.656 84.1859 100.223C85.7388 100.081 87.2917 100.059 88.8371 100.313C91.8757 100.805 93.9213 102.582 95.2203 105.307C95.9445 106.83 96.3103 108.443 96.3402 110.123C96.385 112.579 96.1237 114.968 94.9292 117.178C94.5857 117.82 94.1677 118.193 93.4211 118.395C89.3672 119.477 85.5521 121.105 82.1478 123.598C81.3564 124.181 80.6397 124.83 80.0424 125.614C79.7512 125.995 79.5123 126.406 79.3779 126.868C78.9748 128.235 79.7288 129.31 81.1473 129.407C81.8416 129.452 82.5136 129.34 83.1706 129.123C85.4178 128.376 87.4261 127.182 89.3373 125.801C91.6815 124.099 93.7122 122.075 95.4443 119.761C95.6683 119.455 95.9221 119.321 96.2879 119.261C102.402 118.305 108.517 118.26 114.639 119.201C117.267 119.604 119.895 120.015 122.508 120.522ZM141.545 115.856C141.575 115.117 141.486 114.378 141.351 113.654C141.038 111.914 140.187 110.518 138.514 109.832C136.79 109.122 133.759 109.167 131.967 111.243C131.325 111.989 130.772 112.78 130.429 113.706C129.735 115.535 129.496 117.447 129.593 119.373C129.742 122.352 131.34 124.323 134.796 124.995C136.219 125.271 137.619 125.065 139.02 124.859L139.021 124.859C139.208 124.832 139.395 124.804 139.582 124.778C139.903 124.733 140.008 124.517 140.075 124.24L140.122 124.057L140.193 123.781L140.193 123.781C140.312 123.322 140.431 122.863 140.538 122.404C141.06 120.246 141.486 118.081 141.545 115.856ZM74.3311 110.399C75.1299 111.862 75.548 113.423 75.5555 115.199C75.4957 116.61 75.1822 118.074 74.4356 119.418C73.6741 120.754 72.5692 121.59 70.964 121.456C70.0382 121.381 69.1722 121.045 68.4107 120.478C66.6637 119.164 65.5812 117.409 65.178 115.296C64.5658 112.094 65.2079 109.219 67.6865 106.912C68.0971 106.532 68.4853 106.397 69.0378 106.509C71.4194 106.98 73.1664 108.286 74.3311 110.399ZM92.8537 120.089C89.2402 121.172 85.8433 122.703 82.8047 124.965C82.2523 125.375 81.7595 125.846 81.3265 126.383C81.1249 126.63 80.9532 126.898 80.8412 127.197C80.6845 127.645 80.8039 127.846 81.2742 127.906C81.4833 127.929 81.6923 127.906 81.9014 127.876C82.5882 127.787 83.2303 127.533 83.8574 127.257C87.4111 125.674 90.4124 123.359 92.9731 120.44C92.9862 120.423 93.0001 120.406 93.014 120.389L93.0141 120.389C93.0792 120.31 93.1461 120.229 93.1523 120.112C93.0553 120.037 92.9507 120.06 92.8537 120.089ZM127.575 177.834C127.514 178.305 127.453 178.779 127.219 179.249C126.965 178.982 126.911 178.668 126.859 178.369C126.85 178.316 126.841 178.263 126.83 178.211C126.584 176.994 126.487 175.755 126.405 174.523C126.173 171.163 125.89 167.804 125.516 164.451C125.449 163.891 125.501 163.854 126.039 163.959C126.756 164.101 127.36 164.466 127.898 164.944C128.256 165.258 128.264 165.691 128.264 166.109L128.264 166.112C128.256 167.343 128.249 168.581 128.197 169.819C128.092 172.402 127.988 174.978 127.614 177.539C127.6 177.637 127.587 177.736 127.575 177.834Z" fill="#303030"/>
<path fill-rule="evenodd" clip-rule="evenodd" d="M29.8872 110.459C30.4621 110.802 30.925 111.25 31.0892 111.937C30.8503 112.049 30.6413 112.011 30.4322 111.952C28.9316 111.892 27.431 111.967 25.9304 112.079C22.2796 112.355 19.3157 113.885 17.061 116.782C16.0009 118.133 15.0826 119.574 14.2688 121.09C12.9101 123.621 11.7155 126.234 10.6106 128.892C9.92219 130.55 9.20117 132.193 8.48043 133.836C7.44252 136.201 6.40519 138.566 5.46669 140.971C5.4382 141.045 5.40827 141.119 5.37825 141.194C5.29021 141.412 5.20133 141.631 5.14566 141.86C5.04114 142.293 5.22778 142.666 5.56374 142.778C5.9221 142.897 6.22073 142.733 6.41484 142.285C6.70433 141.626 6.99113 140.965 7.27804 140.304C7.81984 139.056 8.36202 137.806 8.92334 136.566C9.71291 134.837 10.4551 133.085 11.1975 131.333C12.224 128.91 13.2508 126.487 14.4032 124.121C15.5678 121.724 16.8296 119.38 18.5616 117.327C20.0921 115.52 21.9735 114.289 24.3327 113.841C26.6097 113.415 28.9017 113.445 31.1937 113.49C31.6443 113.505 31.6784 113.76 31.7224 114.091L31.7238 114.102C32 116.342 31.9179 118.581 31.791 120.821C31.7206 121.996 31.6378 123.169 31.5551 124.342C31.4448 125.905 31.3346 127.468 31.2535 129.033C31.0686 132.652 31.0557 136.274 31.0427 139.895C31.0374 141.392 31.032 142.888 31.0145 144.383C31.0145 144.518 31.0145 144.652 31.0369 144.779C31.1041 145.182 31.3505 145.428 31.7014 145.451C32.0672 145.481 32.4032 145.212 32.4778 144.801C32.5099 144.603 32.509 144.399 32.508 144.195C32.5079 144.16 32.5077 144.126 32.5077 144.092C32.5167 143.053 32.5227 142.013 32.5286 140.974C32.5525 136.817 32.5764 132.662 32.7914 128.511C32.8751 126.928 32.9842 125.345 33.0934 123.762C33.1403 123.083 33.1871 122.404 33.2319 121.724C33.2472 121.483 33.2632 121.241 33.2791 120.999C33.4036 119.111 33.5283 117.219 33.3364 115.326C33.3184 115.149 33.3077 114.97 33.2969 114.79C33.2808 114.522 33.2647 114.254 33.2244 113.99C33.1647 113.617 33.314 113.512 33.6425 113.535C33.6836 113.535 33.7228 113.533 33.762 113.531C33.8012 113.529 33.8404 113.527 33.8814 113.527C37.8681 113.348 41.825 112.915 45.7296 112.116C47.6408 111.728 49.5222 111.198 51.2393 110.227C52.3965 109.57 53.4567 108.794 54.2779 107.734C56.0025 105.501 55.6964 102.545 53.5836 100.693C53.0685 100.238 52.4861 99.8722 51.8814 99.5437C50.5973 98.8419 49.2161 98.4089 47.8125 98.0356C42.1012 96.5051 36.2854 95.7734 30.3725 95.751C26.4903 95.7361 22.623 95.8556 18.7931 96.6021C16.2323 97.1024 13.791 97.8937 11.5662 99.2749C10.0656 100.201 8.92334 101.425 8.37834 103.157C7.908 104.635 8.26636 105.86 9.41609 106.868C10.1179 107.487 10.9316 107.905 11.8275 108.182C12.9922 108.547 14.1942 108.712 15.4036 108.809C17.0051 108.939 18.6087 109.056 20.2122 109.172C21.5539 109.27 22.8956 109.368 24.2356 109.473C24.3893 109.485 24.5429 109.497 24.6965 109.508C25.8865 109.599 27.0744 109.689 28.2447 109.914C28.8196 110.026 29.387 110.153 29.8872 110.459ZM18.5243 98.2073C22.2348 97.4756 24.8851 97.2591 29.8872 97.2666C35.7702 97.2218 41.8997 97.9758 47.9096 99.6332C49.2609 100.007 50.5749 100.477 51.7694 101.223C52.5907 101.731 53.3074 102.351 53.6433 103.291C54.1734 104.785 53.815 106.099 52.74 107.226C51.4857 108.532 49.9328 109.346 48.2306 109.906C46.1477 110.593 43.9975 110.989 41.825 111.28C39.2344 111.623 36.6437 111.944 34.0307 112.011C33.9427 112.014 33.8539 112.016 33.7647 112.017C33.5893 112.021 33.4127 112.024 33.2394 112.034C32.978 112.049 32.7839 111.967 32.6869 111.698C31.888 109.421 30.0739 108.615 27.8715 108.323C26.2139 108.105 24.546 107.99 22.8795 107.875C22.099 107.822 21.3188 107.768 20.5401 107.704C19.859 107.646 19.1779 107.6 18.4974 107.553C16.8879 107.443 15.2817 107.334 13.6865 107.077C12.6712 106.912 11.6782 106.651 10.8047 106.061C9.67739 105.3 9.43848 104.546 9.92376 103.284C10.3866 102.067 11.2751 101.223 12.3501 100.559C14.2614 99.3869 16.3368 98.6403 18.5243 98.2073Z" fill="#303030"/>
<path d="M55.1962 141.673C55.2111 142.128 55.017 142.427 54.6885 142.524C54.3451 142.621 54.0241 142.487 53.8299 142.128C53.7478 141.972 53.6956 141.785 53.6508 141.606C51.9262 134.999 49.9477 128.466 48.2978 121.836C47.7304 119.559 47.1854 117.275 46.6404 114.998C46.618 114.893 46.5881 114.789 46.5807 114.684C46.5508 114.259 46.73 113.96 47.0659 113.893C47.4318 113.818 47.6856 113.997 47.8275 114.311C47.9245 114.527 47.9768 114.759 48.0365 114.99C49.5297 120.455 50.866 125.965 52.4264 131.415C53.3372 134.61 54.1808 137.821 55.0543 141.023C55.1066 141.262 55.1514 141.494 55.1962 141.673Z" fill="#303030"/>
<path fill-rule="evenodd" clip-rule="evenodd" d="M127.308 13.1497C127.307 13.1698 127.305 13.1896 127.302 13.2088L127.302 13.2089C127.296 13.2755 127.289 13.3365 127.301 13.3886C127.65 15.0359 127.737 16.7065 127.825 18.3798C127.837 18.6024 127.848 18.825 127.861 19.0476C127.995 21.5188 127.741 23.9452 127.346 26.3641C127.025 28.3201 126.256 30.1045 124.859 31.5678C124.822 31.6073 124.786 31.6487 124.75 31.6902C124.663 31.7898 124.577 31.8896 124.471 31.9634C123.202 32.8519 121.866 33.5163 120.275 33.6358C117.827 33.815 115.52 33.3446 113.258 32.4189C110.488 31.2766 107.927 29.776 105.493 28.0439C104.931 27.6467 104.419 27.1817 103.899 26.7107L103.899 26.7107L103.899 26.7106L103.899 26.7106C103.667 26.4999 103.434 26.288 103.194 26.0804C102.739 26.2968 102.358 26.6251 101.977 26.9534L101.977 26.9539C101.216 27.6108 100.403 28.1995 99.5906 28.7875L99.5906 28.7876C99.295 29.0015 98.9996 29.2154 98.7068 29.4325C98.4624 29.6136 98.2188 29.7956 97.9753 29.9776L97.9752 29.9776L97.9752 29.9777L97.9751 29.9777L97.9751 29.9777C96.954 30.7406 95.9334 31.5031 94.8545 32.2023C94.6655 32.3244 94.4756 32.4457 94.2856 32.5671C93.5 33.069 92.7121 33.5723 91.9727 34.1434C91.7636 34.3077 91.5322 34.4271 91.2485 34.4271C90.6736 34.4271 90.3899 33.9792 90.6289 33.4566C90.7483 33.1953 90.9648 33.0609 91.1962 32.9265C92.7267 31.9933 94.1676 30.9257 95.5637 29.8133C95.9872 29.4754 96.4351 29.1694 96.8837 28.8629L96.8837 28.8629L96.8837 28.8629L96.8837 28.8629C97.2181 28.6344 97.5529 28.4057 97.8781 28.1634C98.3254 27.8253 98.7636 27.4764 99.2016 27.1276L99.2016 27.1276L99.2017 27.1275L99.2018 27.1274L99.2019 27.1274C100.021 26.475 100.84 25.8232 101.716 25.2442C101.82 25.1696 101.917 25.0725 102.007 24.9829L102.007 24.9829L102.007 24.9829C102.134 24.856 102.163 24.744 102.022 24.5798C101.424 23.8631 101.073 23.012 100.738 22.1459C100.207 20.7872 100.29 19.4508 100.797 18.1368C101.208 17.0692 101.842 16.136 102.649 15.3148C103.91 14.0157 105.404 13.0302 106.986 12.1866C108.026 11.6312 109.103 11.1521 110.18 10.6731C110.45 10.5534 110.719 10.4336 110.988 10.3127C111.935 9.88725 112.915 9.57546 113.895 9.26399L113.895 9.26399L113.895 9.26397L113.895 9.26396L113.895 9.26394C114.291 9.13815 114.686 9.0124 115.079 8.87924C115.818 8.62541 116.625 8.55075 117.424 8.74486C118.536 9.02109 119.014 9.84233 118.7 10.9473C118.427 11.9053 117.817 12.6558 117.211 13.3997C117.138 13.4905 117.064 13.5813 116.991 13.6723C116.527 14.2646 115.981 14.7957 115.444 15.3174L115.444 15.3175L115.444 15.3175L115.37 15.3894C113.855 16.8602 112.339 18.316 110.742 19.6972C108.959 21.235 107.161 22.7654 105.363 24.2959L105.336 24.3185C105.162 24.4696 104.972 24.6057 104.777 24.7458L104.777 24.7458L104.777 24.7459L104.776 24.7462C104.663 24.8276 104.548 24.9102 104.433 24.9979C105.568 26.2671 106.904 27.2376 108.323 28.0887L108.645 28.2826C109.529 28.816 110.413 29.3488 111.339 29.8282C112.989 30.6719 114.691 31.3662 116.483 31.844C118.118 32.277 119.76 32.3293 121.403 31.8739C123.075 31.411 124.165 30.2986 124.919 28.798C125.591 27.4616 125.905 26.0132 126.069 24.5425C126.368 21.8921 126.487 19.2418 126.151 16.5765C126.107 16.2292 126.075 15.8801 126.043 15.5311C125.985 14.8822 125.926 14.2336 125.785 13.5976C125.737 13.3661 125.681 13.1364 125.625 12.9067L125.625 12.9065C125.569 12.6771 125.513 12.4477 125.464 12.2165C125.419 11.9776 125.263 11.8581 125.076 11.7461C123.957 11.0822 122.909 10.3205 121.855 9.55564L121.746 9.4765C120.932 8.87924 120.193 8.19239 119.566 7.42342C118.207 5.73615 118.334 3.81744 120.007 2.27949C121.567 0.838599 123.389 0.248802 125.472 0.890859C127.144 1.406 128.339 2.45121 128.719 4.22806C128.906 5.11649 128.779 6.00492 128.525 6.88588C128.208 8.00422 127.646 8.99704 127.083 9.99239L127.025 10.0962L127.015 10.1124C126.629 10.798 126.627 10.8014 127.331 11.2384C128.813 12.1568 130.358 12.971 131.9 13.7834C132.339 14.0145 132.777 14.2455 133.214 14.4786C133.831 14.8067 134.451 15.1293 135.07 15.4519C136.228 16.0542 137.384 16.6563 138.522 17.2932C140.345 18.3072 142.161 19.337 143.976 20.3665L143.976 20.3666L143.976 20.3666L143.979 20.368C145.464 21.2102 146.949 22.0522 148.436 22.8851C149.925 23.7187 151.419 24.5425 152.913 25.3665L152.913 25.3667L152.915 25.3679L152.916 25.3681C154.605 26.2998 156.294 27.2317 157.978 28.1783C159.56 29.0742 161.113 30.0223 162.659 30.9705C166.631 33.4193 170.677 35.7486 174.843 37.8539C177.807 39.3546 180.86 40.6685 184.048 41.6242C184.164 41.6591 184.272 41.6921 184.37 41.7225L184.371 41.7227C184.905 41.8873 185.189 41.9749 185.348 41.871C185.528 41.753 185.548 41.3882 185.588 40.6091L185.594 40.5118C185.676 38.9514 186.086 37.4508 187.094 36.2563C188.468 34.6213 190.76 34.4272 192.223 36.4205C194.426 39.4143 192.186 42.6619 189.812 43.3562C189.013 43.5877 188.229 43.7444 187.408 43.737C187.027 43.7295 186.893 43.8714 186.908 44.2446C186.947 45.2883 186.973 46.3319 187 47.3755C187.009 47.728 187.018 48.0805 187.027 48.433C187.03 48.5134 187.038 48.5923 187.045 48.6712L187.045 48.6714C187.055 48.7755 187.064 48.8792 187.064 48.9854C187.071 49.8703 187.076 50.7559 187.08 51.6418C187.091 53.7081 187.102 55.7758 187.139 57.8398C187.18 60.0924 187.199 62.3449 187.218 64.5958L187.218 64.5978C187.229 66.0092 187.241 67.4199 187.258 68.8295C187.264 69.3126 187.266 69.7958 187.269 70.2785V70.2794V70.2804V70.282C187.273 71.0886 187.277 71.8941 187.296 72.6967C187.311 73.3987 187.316 74.1015 187.322 74.8045V74.8046V74.8047V74.8047C187.334 76.2103 187.346 77.6169 187.43 79.0203C187.476 79.8101 187.485 80.5999 187.494 81.3889C187.505 82.2855 187.516 83.1811 187.579 84.0746C187.645 84.9494 187.655 85.8241 187.664 86.6978V86.698C187.673 87.5095 187.682 88.32 187.736 89.1289C187.809 90.1731 187.784 91.2102 187.76 92.2475L187.76 92.2485C187.749 92.709 187.739 93.1695 187.736 93.6308C187.733 94.6993 187.699 95.7678 187.665 96.8354V96.8355V96.8356V96.8358C187.632 97.9014 187.598 98.9661 187.594 100.029C187.594 100.937 187.557 101.844 187.519 102.751C187.478 103.739 187.437 104.726 187.445 105.711C187.457 106.731 187.412 107.749 187.368 108.767L187.368 108.767C187.328 109.67 187.288 110.572 187.288 111.474C187.288 112.263 187.24 113.047 187.192 113.83L187.192 113.831C187.154 114.463 187.115 115.096 187.102 115.73C187.045 117.886 186.861 120.035 186.678 122.18C186.621 122.842 186.565 123.504 186.512 124.166C186.348 126.264 185.967 128.347 185.526 130.415C185.482 130.623 185.438 130.791 185.401 130.927C185.332 131.186 185.293 131.333 185.344 131.434C185.409 131.565 185.622 131.623 186.11 131.754L186.187 131.775C186.238 131.789 186.291 131.803 186.348 131.819C188.595 132.431 190.76 133.252 192.731 134.514C193.575 135.051 194.381 135.648 195.172 136.261C196.382 137.201 197.561 138.172 198.644 139.254C199.502 140.106 200.316 141.024 200.772 142.174C201.108 143.025 200.891 143.368 200.003 143.6C198.762 143.921 197.497 144.105 196.23 144.289L195.889 144.339C193.024 144.75 190.145 144.941 187.266 145.132C186.44 145.187 185.613 145.242 184.787 145.302C184.313 145.339 183.834 145.35 183.353 145.361H183.353L183.351 145.361L183.182 145.365L183.048 145.369C182.09 145.397 181.133 145.431 180.176 145.466C178.841 145.514 177.506 145.562 176.172 145.593C175.056 145.616 173.947 145.568 172.838 145.52L172.837 145.52C172.187 145.492 171.537 145.464 170.886 145.451C168.9 145.409 166.951 145.111 165.002 144.813C164.167 144.686 163.332 144.558 162.494 144.451C162.076 144.398 161.666 144.286 161.285 144.092C160.942 143.921 160.807 143.6 160.897 143.234C160.986 142.883 161.225 142.696 161.584 142.689C161.793 142.689 162.009 142.711 162.211 142.756C165.533 143.54 168.922 143.853 172.319 144.003C176.008 144.159 179.696 144.01 183.384 143.779L183.412 143.777L183.412 143.777C183.932 143.748 184.446 143.719 184.966 143.712C186.952 143.698 188.931 143.509 190.903 143.321L191.35 143.279C191.944 143.222 192.539 143.173 193.134 143.124C194.797 142.987 196.462 142.851 198.106 142.532C198.405 142.472 198.711 142.405 199.077 142.323C198.741 141.711 198.383 141.196 197.942 140.748C195.62 138.336 193.015 136.305 190.021 134.79C188.558 134.051 187.012 133.528 185.429 133.11C184.959 132.991 184.847 133.17 184.705 133.536C184.16 134.939 183.526 136.291 182.615 137.507C181.57 138.889 180.33 140.038 178.889 140.994C177.613 141.838 176.179 142.174 174.731 142.36C173.245 142.554 171.804 142.144 170.602 141.285C169.43 140.442 168.803 139.24 169.154 137.709C169.341 136.903 169.639 136.149 170.147 135.492C170.946 134.461 171.871 133.61 173.029 132.953C175.679 131.438 178.538 130.923 181.54 130.997C181.909 131.007 182.279 131.05 182.646 131.094L182.647 131.094L182.647 131.094L182.648 131.094C182.829 131.115 183.01 131.137 183.19 131.154C183.802 131.214 183.809 131.214 183.966 130.587C184.295 129.28 184.496 127.959 184.645 126.615C184.713 125.983 184.797 125.352 184.882 124.721L184.882 124.721C185.032 123.6 185.183 122.478 185.235 121.352C185.281 120.381 185.355 119.412 185.428 118.442L185.428 118.442C185.546 116.89 185.664 115.338 185.668 113.781C185.668 113.158 185.713 112.534 185.759 111.91C185.809 111.217 185.859 110.523 185.847 109.832C185.834 108.832 185.878 107.832 185.923 106.832C185.977 105.622 186.031 104.412 185.982 103.202C185.968 102.792 185.997 102.383 186.027 101.972V101.971V101.971V101.971C186.045 101.723 186.063 101.474 186.071 101.224C186.086 100.663 186.102 100.101 186.118 99.5404C186.172 97.5705 186.227 95.6006 186.251 93.6308L186.259 93.1292C186.287 91.3703 186.316 89.6118 186.213 87.8597C186.174 87.1175 186.166 86.3752 186.159 85.6336C186.149 84.6894 186.139 83.7462 186.064 82.8054C185.992 81.8817 185.983 80.958 185.973 80.0357C185.965 79.3254 185.958 78.616 185.922 77.9079C185.803 75.5889 185.789 73.2699 185.776 70.9531V70.9528V70.9516C185.769 69.7932 185.763 68.6353 185.743 67.4782C185.73 66.7326 185.738 65.9869 185.746 65.2413C185.756 64.2474 185.766 63.2535 185.728 62.2596C185.654 60.3497 185.643 58.4398 185.633 56.5299C185.624 54.9608 185.615 53.3916 185.571 51.8224C185.536 50.6173 185.536 49.4122 185.535 48.2078V48.207C185.534 46.8301 185.533 45.4542 185.482 44.0804C185.467 43.6101 185.317 43.4458 184.884 43.3562C181.532 42.647 178.434 41.2583 175.351 39.81C172.245 38.3467 169.266 36.6594 166.309 34.9274C165.01 34.1661 163.72 33.3909 162.43 32.6159L162.43 32.6158C160.874 31.6808 159.318 30.746 157.746 29.8357C156.134 28.9053 154.502 28.008 152.87 27.1108L152.869 27.1103L152.869 27.1103L152.869 27.1102C152.053 26.6613 151.236 26.2124 150.422 25.7594L150.409 25.7522L150.409 25.7521L150.409 25.7519L150.409 25.7518C148.435 24.6493 146.461 23.5469 144.494 22.4296L144.112 22.2122L144.112 22.2121L144.112 22.212C140.462 20.1341 136.809 18.0547 133.072 16.1285C132.051 15.6029 131.039 15.0626 130.029 14.523L130.029 14.5229L130.029 14.5228L130.028 14.5228C129.274 14.1197 128.52 13.7172 127.764 13.3214C127.731 13.3037 127.701 13.2846 127.67 13.2658C127.56 13.1972 127.455 13.1321 127.308 13.1497ZM103.583 23.7179L103.583 23.7179C103.646 23.6787 103.696 23.6476 103.739 23.6092C104.556 22.8974 105.39 22.2055 106.226 21.5124L106.226 21.5124C106.749 21.0786 107.273 20.6445 107.793 20.2048C108.726 19.4145 109.637 18.5955 110.546 17.7781L110.546 17.7781L110.546 17.778L110.546 17.778C111.106 17.2751 111.664 16.7726 112.227 16.2778C113.399 15.2476 114.504 14.1576 115.527 12.9929C116.102 12.3434 116.655 11.664 117.05 10.8875C117.312 10.3799 117.207 10.2007 116.647 10.2306C115.96 10.2679 115.281 10.3873 114.631 10.6038C112.608 11.2832 110.652 12.1045 108.718 13.0228C106.74 13.956 104.963 15.158 103.448 16.7258C102.641 17.5694 102.052 18.5474 101.984 19.7942C101.917 21.3172 102.395 22.6238 103.418 23.8257C103.482 23.7811 103.536 23.7473 103.583 23.7181L103.583 23.718L103.583 23.7179ZM177.239 132.923C179.225 132.416 181.189 132.423 183.287 132.789C182.816 133.954 182.361 135.059 181.682 136.074C180.972 137.134 180.173 138.135 179.166 138.896C176.986 140.539 174.626 141.472 171.886 140.247C170.871 139.799 170.438 138.881 170.714 137.799C171.065 136.432 172.013 135.514 173.066 134.715C174.298 133.782 175.746 133.304 177.239 132.923ZM127.316 5.37033C127.234 4.01902 126.666 2.89915 125.36 2.39895C124.262 1.98086 123.247 2.17497 122.217 2.56319C121.336 2.89915 120.753 3.54868 120.35 4.39231C120.104 4.91491 120.119 5.42259 120.425 5.9004C120.723 6.36328 121.03 6.81869 121.433 7.20691C122.5 8.22972 123.71 9.06589 124.971 9.83486C125.307 10.0364 125.502 9.97671 125.666 9.66315C125.773 9.46194 125.884 9.2625 125.995 9.06298L125.995 9.06292C126.395 8.34446 126.795 7.62502 127.017 6.81869C127.159 6.34088 127.293 5.8556 127.316 5.37033ZM188.436 42.0424C188.201 42.0671 187.975 42.0908 187.826 42.1094C187.027 42.1244 186.99 42.0945 187.034 41.4226C187.117 40.2579 187.318 39.1157 187.803 38.0481C188.08 37.4433 188.408 36.8759 189.08 36.6072C189.424 36.4728 189.73 36.4653 190.073 36.6146C191.409 37.1895 191.977 38.8245 191.245 40.1534C190.67 41.2061 189.819 41.9004 188.58 42.0273C188.532 42.0323 188.484 42.0374 188.436 42.0424Z" fill="#303030"/>
<path d="M102.985 42.7664C102.962 42.3558 103.082 42.1468 103.179 41.9377C104.627 38.8991 106.105 35.8755 107.74 32.934C107.815 32.7996 107.882 32.6503 107.972 32.5234C108.181 32.2247 108.465 32.1277 108.801 32.277C109.107 32.4114 109.316 32.8145 109.196 33.1281C108.995 33.6432 108.756 34.1434 108.502 34.6287C107.218 37.0775 106.076 39.586 104.881 42.0796C104.709 42.4304 104.575 42.8187 104.276 43.0874C104.037 43.3114 103.754 43.4383 103.41 43.3039C103.082 43.177 103 42.9082 102.985 42.7664Z" fill="#303030"/>
<path d="M115.348 44.9315C115.572 41.8855 115.796 38.9664 116.401 36.0995C116.431 35.9726 116.438 35.8382 116.483 35.7113C116.632 35.2708 116.938 35.0618 117.297 35.1364C117.662 35.2186 117.842 35.5247 117.782 35.995C117.7 36.5923 117.55 37.1895 117.513 37.7943C117.364 40.1609 116.99 42.5052 116.886 44.8793C116.878 45.0361 116.886 45.2003 116.841 45.3496C116.729 45.7379 116.431 45.8872 116.057 45.8946C115.706 45.9021 115.415 45.6408 115.348 45.2675C115.326 45.1182 115.348 44.9614 115.348 44.9315Z" fill="#303030"/>
<path fill-rule="evenodd" clip-rule="evenodd" d="M63.9685 79.7967C65.1406 80.6254 66.1261 81.6482 66.9847 82.8129C66.8322 82.9771 66.6935 82.9939 66.5469 83.0116C66.507 83.0165 66.4664 83.0214 66.4248 83.0294C62.9308 83.4998 59.4293 83.4624 55.9353 82.9996C52.7474 82.574 49.7089 81.6557 46.9615 79.9087C44.8412 78.5649 42.9971 76.9299 41.728 74.7275C41.4219 74.2049 40.9963 74.0033 40.414 74.0481C39.4136 74.1153 38.4131 74.1974 37.4351 74.4139C37.1114 74.4836 36.7876 74.5666 36.4638 74.6497C36.3023 74.6911 36.1408 74.7325 35.9793 74.7723C35.9625 74.7756 35.9453 74.7794 35.9279 74.7833L35.9277 74.7834C35.7907 74.8139 35.6407 74.8473 35.5612 74.6752C35.3671 74.2721 35.6433 73.6823 36.0838 73.5777C36.4672 73.4884 36.8523 73.4028 37.2375 73.3172C37.625 73.231 38.0126 73.1449 38.3982 73.0551C43.1166 71.9353 47.8275 70.793 52.3891 69.1057C59.3771 66.5226 64.8719 62.1551 68.6197 55.6673C69.2244 54.6221 69.8665 53.5844 70.5832 52.6064C70.6235 52.5521 70.6646 52.4982 70.7057 52.4442L70.7058 52.4442C70.84 52.2681 70.9749 52.0913 71.0834 51.8971C71.4567 51.2252 71.0834 50.5981 70.3144 50.5981C70.1722 50.5981 70.0253 50.6309 69.8812 50.6632C69.8437 50.6716 69.8064 50.6799 69.7694 50.6877C68.0075 51.0161 66.2456 51.3222 64.4613 51.5387C64.0518 51.5882 63.6422 51.6367 63.2326 51.6851C61.0503 51.9432 58.8678 52.2013 56.7118 52.6288C52.5907 53.4425 48.7906 54.9954 45.4982 57.6607C42.3327 60.2215 39.6002 63.163 37.465 66.642C37.4348 66.6911 37.4079 66.7435 37.3811 66.7958C37.3019 66.9502 37.2235 67.1032 37.0618 67.1646C36.9298 67.1457 36.8825 67.0633 36.8396 66.9887C36.8347 66.9801 36.8298 66.9716 36.8249 66.9633C36.8218 66.9581 36.8187 66.953 36.8155 66.9481C36.5827 66.5713 36.3515 66.1946 36.1205 65.8183L36.1204 65.8182L36.1204 65.818C35.6329 65.0238 35.1468 64.2318 34.6504 63.4467C34.4861 63.1854 34.4712 62.9763 34.6504 62.73C34.7422 62.6098 34.8274 62.4847 34.9122 62.3601L34.9122 62.3601L34.9123 62.36C35.0067 62.2213 35.1007 62.0833 35.2029 61.9535C36.084 60.8257 37.1315 59.8642 38.1757 58.9058L38.3609 58.7358C38.5031 58.6059 38.6453 58.4762 38.7876 58.3465L38.7877 58.3464L38.7879 58.3463C39.8555 57.3731 40.9208 56.402 41.9221 55.3612C43.572 53.659 44.9233 51.7553 45.9237 49.6051C47.9544 45.2526 48.6189 40.6984 47.9096 35.9502C47.8876 35.808 47.8673 35.6652 47.8471 35.5223L47.847 35.522C47.764 34.937 47.6805 34.349 47.4766 33.7851C47.2078 33.0236 46.6404 32.8071 45.9013 33.1356C45.785 33.1906 45.6687 33.2558 45.5565 33.3186L45.5565 33.3186L45.4832 33.3595C43.2286 34.6287 41.2725 36.2563 39.6077 38.2347C36.1286 42.3782 33.9337 47.1563 32.6272 52.3675C32.4641 53.0249 32.3149 53.6858 32.1606 54.3692C32.0889 54.6869 32.0161 55.0094 31.9403 55.3388C31.7823 55.029 31.7473 54.7566 31.7131 54.4901C31.7069 54.4419 31.7008 54.3939 31.6939 54.3459C31.2684 51.494 30.6189 48.7092 29.5438 46.0215C27.7072 41.4151 24.8628 37.5478 21.0776 34.36L21.0652 34.3499L21.0652 34.3499C20.9494 34.2557 20.8266 34.1558 20.6968 34.0837C20.1668 33.8 19.6292 34.0165 19.4277 34.5839C19.353 34.7955 19.3561 35.0176 19.3593 35.237L19.3593 35.2373C19.3599 35.2809 19.3605 35.3245 19.3605 35.3678C19.3754 38.0406 19.6442 40.6835 19.9652 43.3339C20.4505 47.3803 21.7122 51.1281 23.8175 54.6221C25.6765 57.698 27.7221 60.6321 30.0141 63.4019C31.0743 64.6785 32.127 65.9626 32.9258 67.4334C33.6798 68.837 34.0158 70.3376 34.083 71.9129C34.0979 72.3384 33.9635 72.54 33.5305 72.5922C32.9034 72.6744 32.2763 72.7864 31.6641 72.9357C31.2236 73.0477 30.9548 72.9282 30.7607 72.54C30.7237 72.4659 30.6781 72.3977 30.6328 72.3298L30.6328 72.3298L30.6328 72.3297L30.6327 72.3297C30.6049 72.288 30.5772 72.2465 30.5517 72.204C28.1776 68.3741 24.8329 65.7237 20.6894 63.9917C18.0764 62.9017 15.3588 62.3641 12.5666 62.058C8.7516 61.6399 4.92912 61.7519 1.10664 61.9834C0.195816 62.0431 -0.192405 62.6702 0.0912951 63.5363C0.248076 64.0215 0.531776 64.4396 0.815476 64.8502C2.3385 67.0377 4.03323 69.0983 5.89221 71.0095C7.69146 72.861 9.69229 74.4288 12.0141 75.5786C14.7093 76.9149 17.5463 77.766 20.5027 78.2588C22.511 78.5873 24.5193 78.8038 26.565 78.647C28.7674 78.4753 30.8802 77.9377 32.9706 77.2808C33.0461 77.2575 33.1205 77.2283 33.1954 77.1989L33.1955 77.1988C33.4095 77.1148 33.627 77.0294 33.8814 77.0792L33.886 77.118C33.8993 77.2278 33.9105 77.3214 33.9038 77.4151C33.7694 79.2069 33.5231 80.9838 33.2543 82.7532C33.1946 83.1339 32.993 83.2011 32.657 83.2011C31.1639 83.1937 29.7304 83.5222 28.3194 83.985C27.6176 84.2165 26.9532 84.5375 26.3783 85.0153C25.4302 85.8067 25.1987 86.9863 25.7661 88.0837C26.1767 88.8826 26.871 89.3529 27.6923 89.6217C28.5732 89.9054 29.4915 89.9801 30.4248 89.8979C31.4326 89.8158 32.2315 89.3529 32.881 88.6064C33.3439 88.0837 33.6798 87.4865 33.8889 86.8295C34.0457 86.3218 34.1875 85.8142 34.292 85.299C34.3742 84.9332 34.4936 84.754 34.9192 84.8137C35.2553 84.8593 35.5922 84.898 35.9291 84.9366L35.9293 84.9366L35.9294 84.9367L35.9296 84.9367L35.9297 84.9367C36.6403 85.0183 37.3509 85.0998 38.0548 85.2468C38.1672 85.2705 38.2796 85.2939 38.3919 85.3173L38.392 85.3173C39.3391 85.5145 40.2812 85.7107 41.1755 86.0979C42.8105 86.8071 43.572 87.9643 43.5571 89.7412C43.5571 90.1294 43.5197 90.5251 43.4749 90.9207C43.2212 93.2267 42.7362 95.4955 42.2512 97.7642L42.2506 97.7669C41.9295 99.2675 41.5637 100.753 40.9366 102.157C40.399 103.359 39.5106 104.016 38.1593 103.986C38.0896 103.981 38.02 103.983 37.9503 103.984C37.929 103.985 37.9076 103.985 37.8863 103.986C37.8728 103.986 37.8592 103.986 37.8457 103.986C37.174 103.972 36.5017 103.965 35.8293 103.958C33.9684 103.938 32.1067 103.919 30.253 103.754C29.3572 103.68 28.4762 103.53 27.6102 103.277C26.5724 102.978 25.9752 102.328 25.8109 101.223C25.4747 98.9749 25.1833 96.7182 24.8916 94.4594L24.8916 94.4592L24.8915 94.4585L24.8914 94.4577C24.788 93.6571 24.6846 92.8563 24.5791 92.0555C24.3849 90.5624 24.2207 89.0692 24.1087 87.5686C24.0714 87.0833 23.8175 86.8295 23.4517 86.8295C23.0784 86.822 22.8321 87.0908 22.8022 87.5686C22.7798 87.9344 22.8022 88.3077 22.8246 88.6735C23.0187 91.8614 23.4293 95.0269 23.8698 98.1849C23.918 98.5284 23.962 98.8726 24.0061 99.2168L24.0062 99.2172L24.0062 99.2173C24.1192 100.1 24.2322 100.983 24.4148 101.858C24.6836 103.112 25.4078 103.986 26.5874 104.486C27.1771 104.74 27.7819 104.912 28.409 105.009C31.8134 105.546 35.2477 105.509 38.6744 105.457C40.1303 105.434 41.2128 104.658 41.9669 103.426C42.4073 102.694 42.691 101.903 42.9449 101.097C43.6093 98.9441 44.0235 96.7339 44.4373 94.5254L44.4373 94.5253L44.5351 94.0041C44.8039 92.5781 45.0428 91.1447 45.0652 89.6889C45.11 87.2998 43.9528 85.7022 41.8175 84.7391C41.2128 84.4703 40.5857 84.2762 39.9436 84.1194C38.3758 83.7387 36.7931 83.4624 35.1879 83.3504C34.7848 83.3206 34.6952 83.1713 34.7624 82.8054C34.8744 82.2082 34.9714 81.6109 35.0386 81.0062C35.1954 79.6698 35.3372 78.3334 35.4716 76.9971L35.4753 76.9522C35.4951 76.7079 35.5133 76.4834 35.83 76.3849C37.2261 75.9668 38.6371 75.6607 40.0929 75.5711C40.4438 75.5487 40.6081 75.7129 40.7798 75.9742C42.8329 79.0651 45.6699 81.1854 49.0295 82.6487C51.5828 83.7611 54.2779 84.3733 57.0552 84.6271C60.0564 84.9033 63.0577 84.9407 66.0589 84.5972C66.7682 84.5151 67.4774 84.4255 68.1717 84.2911C68.9631 84.1343 69.2319 83.5296 68.8661 82.8054C68.8063 82.686 68.7317 82.574 68.6496 82.4695C67.4849 80.9539 66.2232 79.5504 64.6554 78.438C60.2953 75.3471 55.4874 73.5105 50.1419 73.0925C48.0888 72.9282 46.088 73.1597 44.1095 73.6897C43.8781 73.7494 43.6616 73.8316 43.4824 74.0033C43.251 74.2273 43.1763 74.5035 43.2883 74.8021C43.4003 75.1008 43.6616 75.2426 43.9752 75.2351C44.1539 75.2277 44.3327 75.1756 44.5115 75.1235L44.5127 75.1232C47.4019 74.3019 50.2987 74.4886 53.2103 75.0261C57.1821 75.7652 60.706 77.4898 63.9685 79.7967ZM68.2212 52.4819C68.3879 52.4452 68.5635 52.4065 68.7392 52.4944C68.7369 52.5129 68.7374 52.5315 68.738 52.5491C68.7391 52.5883 68.7402 52.6231 68.7093 52.6437C68.3683 53.1858 68.0375 53.7349 67.7066 54.2842L67.7066 54.2843L67.7065 54.2844C66.9075 55.611 66.1081 56.9382 65.163 58.1684C61.7138 62.6404 57.2344 65.6789 51.9785 67.6424C47.4243 69.3372 42.706 70.472 37.9876 71.5918C37.3978 71.7337 36.808 71.8755 36.2182 72.0025C35.6359 72.1294 35.6284 72.1219 35.5538 71.5022C35.5331 71.3245 35.517 71.1468 35.501 70.9696C35.4767 70.7 35.4524 70.4316 35.4119 70.1659C35.0983 68.0157 34.0905 66.1791 32.7914 64.4844C32.1815 63.6868 31.5521 62.9055 30.9225 62.1239L30.9225 62.1238C29.949 60.9153 28.9752 59.7065 28.073 58.4371C26.6097 56.3691 25.2883 54.2115 24.0863 51.9792C22.9217 49.8216 22.1751 47.5296 21.7645 45.1182C21.3389 42.6246 21.0328 40.1086 20.9134 37.5777C20.9034 37.3338 20.9067 37.0899 20.9101 36.846C20.9117 36.7241 20.9134 36.6022 20.9134 36.4802C21.1372 36.4056 21.2463 36.5339 21.3492 36.6549C21.3802 36.6913 21.4106 36.7271 21.4434 36.7565C25.4451 40.3699 27.8864 44.9091 29.2974 50.0531C29.8308 52.0064 30.1263 54.004 30.422 56.003L30.4222 56.0045C30.47 56.3276 30.5178 56.6507 30.5666 56.9738C30.6626 57.6099 30.7721 58.2427 30.8815 58.8743C30.9339 59.1767 30.9862 59.4788 31.037 59.781C31.0668 59.9303 31.1041 60.0871 31.1564 60.2364C31.2609 60.535 31.4774 60.7217 31.7985 60.7441C32.1568 60.7739 32.4107 60.6022 32.5674 60.2961C32.7018 60.0348 32.7616 59.7511 32.8063 59.4599C32.8752 59.0501 32.9425 58.64 33.0097 58.2298L33.0098 58.2294L33.0098 58.2291L33.0099 58.229C33.3433 56.1953 33.677 54.1599 34.2174 52.1659C35.5388 47.2609 37.6442 42.7664 40.9963 38.8991C42.2879 37.4135 43.7661 36.1517 45.4384 35.114C45.4836 35.086 45.5281 35.0554 45.573 35.0244L45.5731 35.0244C45.7436 34.9071 45.9203 34.7855 46.1626 34.7855C46.3619 35.3109 46.4147 35.8608 46.4671 36.4074L46.4671 36.4075L46.4671 36.4079L46.4672 36.4082C46.4795 36.537 46.4919 36.6657 46.5061 36.7938C47.2526 43.7669 45.3339 49.8365 40.3244 54.8312C39.5045 55.6463 38.6523 56.4291 37.7991 57.2128L37.7991 57.2129L37.799 57.213L37.7988 57.2131C37.2925 57.6782 36.7858 58.1436 36.2854 58.6163C35.1506 59.6839 34.0979 60.8112 33.2468 62.1402C32.8213 62.8121 32.8213 63.3496 33.2618 64.0141C33.8939 64.9703 34.4908 65.95 35.0865 66.9277L35.0865 66.9278L35.0876 66.9295C35.3147 67.3023 35.5416 67.6748 35.7703 68.0456C35.8337 68.1464 35.8935 68.249 35.9532 68.3516C36.0129 68.4543 36.0726 68.557 36.1361 68.6578C36.6886 69.5313 37.4053 69.5387 37.9951 68.6802C38.173 68.4245 38.3343 68.1522 38.4945 67.8818L38.4945 67.8818L38.4945 67.8817C38.5494 67.789 38.6042 67.6966 38.6595 67.6051C40.7723 64.1111 43.4973 61.1621 46.6927 58.6387C49.582 56.3542 52.8968 54.9805 56.4729 54.204C58.3415 53.7995 60.2406 53.5646 62.1369 53.33L62.1369 53.33C62.7257 53.2572 63.3141 53.1844 63.9013 53.1066C64.2129 53.0653 64.5245 53.0256 64.8361 52.9858C65.9352 52.8455 67.0334 52.7054 68.127 52.5018C68.158 52.4958 68.1894 52.4889 68.2212 52.4819ZM1.83082 63.4019C1.86899 63.7199 1.99927 63.8916 2.12011 64.0509C2.1411 64.0785 2.16182 64.1058 2.18171 64.1335C3.57781 66.1194 5.1307 67.9859 6.79557 69.7478C9.19208 72.2862 12.0216 74.1451 15.3066 75.3322C17.5762 76.1534 19.9055 76.6686 22.2871 76.9747C24.4671 77.2584 26.6471 77.2509 28.8196 76.8104C30.3725 76.4969 31.8806 76.034 33.3812 75.5487C33.7215 75.4402 33.8914 75.3861 33.978 75.2699C34.0643 75.1542 34.0681 74.9768 34.0755 74.6229C34.0755 74.5798 34.0795 74.5354 34.0836 74.4903C34.098 74.3321 34.1129 74.1668 33.9561 74.0331L33.9459 74.0348L33.9457 74.0348C33.3295 74.1388 32.7133 74.2428 32.0971 74.3616C30.5367 74.6453 30.3128 74.5483 29.4393 73.197L29.4369 73.1931L29.4368 73.193C29.3406 73.0375 29.2443 72.8821 29.1406 72.7341C28.2671 71.4425 27.3265 70.2107 26.1693 69.1505C23.5712 66.754 20.4953 65.2459 17.1207 64.3426C14.1792 63.5587 11.1481 63.3496 8.11701 63.2526C6.76235 63.204 5.41084 63.2628 4.04606 63.3222L4.04594 63.3222C3.31225 63.3541 2.57473 63.3862 1.83082 63.4019ZM32.3061 86.7548C31.7835 87.8374 31.0146 88.5392 29.7678 88.3898C29.2302 88.4122 28.7599 88.3525 28.2895 88.2256C27.9312 88.1211 27.6027 87.9643 27.3339 87.6955C26.8039 87.158 26.8412 86.5309 27.4384 86.068C27.6251 85.9261 27.8267 85.7992 28.0432 85.7022C29.3796 85.1049 30.7757 84.7615 32.2389 84.7017C32.8362 84.6793 32.8885 84.7465 32.7616 85.3289C32.657 85.8142 32.5226 86.2994 32.3061 86.7548Z" fill="#303030"/>
</svg>
